<?xml version="1.0" encoding="UTF-8"?>
<svg id="Layer_2" data-name="Layer 2" xmlns="http://www.w3.org/2000/svg" viewBox="0 0 467.51 400.98">
  <defs>
    <style>
      .cls-1 {
        fill: #5878a5;
        font-family: MerriweatherSansRoman-Bold, 'Merriweather Sans';
        font-size: 45.24px;
        font-variation-settings: 'wght' 700;
        font-weight: 700;
      }

      .cls-2, .cls-3 {
        fill: #647aa3;
      }

      .cls-4 {
        stroke-width: 7px;
      }

      .cls-4, .cls-5, .cls-3, .cls-6 {
        stroke: #647aa3;
        stroke-miterlimit: 10;
      }

      .cls-4, .cls-5, .cls-6 {
        fill: none;
      }

      .cls-5 {
        stroke-width: 12px;
      }

      .cls-6 {
        stroke-width: 6.16px;
      }
    </style>
  </defs>
  <g id="Layer_1-2" data-name="Layer 1">
    <g>
      <g>
        <g>
          <polygon class="cls-5" points="127.51 328.49 461.66 328.49 430 328.49 430 124.49 307.45 124.49 307.45 43.49 160.38 43.49 161.4 328.49 307.45 328.49 307.45 124.49 307.45 328.49 127.51 328.49"/>
          <rect class="cls-5" x="211.51" y="272.79" width="41.85" height="55.7"/>
          <rect class="cls-3" x="200.51" y="82.49" width="22" height="22"/>
          <rect class="cls-3" x="242.51" y="82.49" width="22" height="22"/>
          <rect class="cls-3" x="200.51" y="126.49" width="22" height="22"/>
          <rect class="cls-3" x="242.51" y="126.49" width="22" height="22"/>
          <rect class="cls-3" x="200.51" y="172.49" width="22" height="22"/>
          <rect class="cls-3" x="242.51" y="172.49" width="22" height="22"/>
          <rect class="cls-3" x="200.51" y="217.49" width="22" height="22"/>
          <rect class="cls-3" x="242.51" y="217.49" width="22" height="22"/>
          <rect class="cls-3" x="337.51" y="172.49" width="22" height="22"/>
          <rect class="cls-3" x="379.51" y="172.49" width="22" height="22"/>
          <rect class="cls-3" x="337.51" y="216.49" width="22" height="22"/>
          <rect class="cls-3" x="379.51" y="216.49" width="22" height="22"/>
          <rect class="cls-3" x="337.51" y="262.49" width="22" height="22"/>
          <rect class="cls-3" x="379.51" y="262.49" width="22" height="22"/>
          <rect class="cls-3" x="66.01" y="171.99" width="22" height="22"/>
          <rect class="cls-3" x="108.01" y="171.99" width="22" height="22"/>
          <rect class="cls-3" x="66.01" y="215.99" width="22" height="22"/>
          <rect class="cls-3" x="108.01" y="215.99" width="22" height="22"/>
          <rect class="cls-3" x="66.01" y="261.99" width="22" height="22"/>
          <rect class="cls-3" x="108.01" y="261.99" width="22" height="22"/>
          <rect class="cls-5" x="37.45" y="124.49" width="122.55" height="204"/>
          <path class="cls-5" d="M0,328.49H0Z"/>
        </g>
        <text class="cls-1" transform="translate(84.45 388.15)"><tspan x="0" y="0">WHITE HOME</tspan></text>
        <path class="cls-2" d="M394.51,346.18c4.04,0,7.31,3.27,7.31,7.31s-3.27,7.31-7.31,7.31-7.31-3.27-7.31-7.31,3.27-7.31,7.31-7.31Zm0,16.31c4.97,0,9-4.03,9-9s-4.03-9-9-9-9,4.03-9,9,4.03,9,9,9Zm-3.38-12.66v7.31c0,.47,.38,.84,.84,.84s.84-.38,.84-.84v-2.53h2.14l1.31,2.88c.19,.43,.69,.61,1.12,.42s.61-.69,.42-1.12l-1.2-2.64c.77-.5,1.28-1.37,1.28-2.36,0-1.55-1.26-2.81-2.81-2.81h-3.09c-.47,0-.84,.38-.84,.84Zm1.69,3.09v-2.25h2.25c.62,0,1.12,.5,1.12,1.12s-.5,1.12-1.12,1.12h-2.25Z"/>
        <rect class="cls-6" x="189.01" y="22.77" width="100.5" height="17.45"/>
        <rect class="cls-4" x="52.51" y="104.49" width="91" height="19"/>
        <rect class="cls-4" x="324.51" y="104.49" width="91" height="19"/>
      </g>
      <line class="cls-5" x1="467.51" y1="328.49" x2="435.51" y2="328.49"/>
    </g>
    <path class="cls-3" d="M176.56,14.4l2.26-6.79c1.65,.2,3.16-.98,3.36-2.63,.2-1.65-.98-3.16-2.63-3.36-1.65-.2-3.16,.98-3.36,2.63-.03,.25-.03,.49,0,.74l-6.76,2.28-5.99-5.99c-.65-.65-1.59-.92-2.48-.7-.89,.2-1.6,.85-1.89,1.72-.83,2.46-1.13,5.08-.89,7.66,.41,4.66,2.63,8.88,5.93,11.95-1.33,1.29-1.44,3.4-.25,4.83-.08,.14-.15,.28-.2,.42l-2.88,7.36c-.66,1.68,.17,3.57,1.85,4.22,.38,.15,.78,.22,1.19,.22h7.93c1.8,0,3.26-1.46,3.26-3.26,0-.66-.2-1.3-.57-1.84l-4.99-7.27c.22-.3,.4-.62,.52-.97,1.63,.65,3.35,1.07,5.11,1.22,.58,.05,1.15,.08,1.72,.08,2.02,0,4.03-.32,5.95-.97,.86-.29,1.51-1,1.72-1.89,.21-.89-.05-1.83-.7-2.48l-7.17-7.17Zm-.95-.95l-2.2-2.2,4.11-4.11c.05,.03,.1,.07,.16,.1l-2.07,6.22Zm3.57-10.64c1,0,1.81,.81,1.81,1.81s-.81,1.81-1.81,1.81c-.18,0-.35-.03-.52-.08l-.04-.02h-.03c-.52-.19-.93-.61-1.11-1.13h0s0-.02,0-.02c-.31-.95,.21-1.97,1.16-2.27,.18-.06,.37-.09,.56-.09h0Zm-2.61,3.32c.03,.05,.06,.1,.09,.15l-4.11,4.11-2.18-2.18,6.2-2.09Zm-3.03,30.53c-.35,.68-1.05,1.11-1.82,1.1h-7.93c-1.14,0-2.06-.92-2.06-2.06,0-.26,.05-.51,.14-.75l2.88-7.36s.02-.04,.03-.07c1.17,.68,2.62,.64,3.75-.1h0l4.88,7.12c.44,.62,.49,1.44,.13,2.11Zm-5.26-10.59l-.06,.06c-.89,.84-2.28,.88-3.2,.07l-.17-.15c-.89-.95-.83-2.44,.12-3.33,.34-.32,.78-.53,1.24-.6,.12-.02,.24-.03,.36-.03,1.04,0,1.96,.69,2.26,1.69,.06,.22,.09,.44,.09,.66,0,.6-.23,1.19-.65,1.62h0Zm14.97-2.29c-.11,.48-.46,.87-.93,1.02-2.31,.77-4.75,1.06-7.17,.83-1.73-.16-3.42-.57-5.02-1.24-.03-1.97-1.65-3.53-3.62-3.5-.48,0-.96,.11-1.41,.31-3.2-2.88-5.35-6.91-5.75-11.36-.05-.54-.07-1.08-.07-1.62,0-1.89,.3-3.77,.91-5.56,.15-.47,.54-.82,1.02-.92,.49-.11,1,.03,1.35,.38l6.26,6.26h0l14.03,14.03c.36,.35,.5,.87,.38,1.35h0Z"/>
  </g>
</svg>